<svg width="14" height="14" viewBox="0 0 14 14" fill="none" xmlns="http://www.w3.org/2000/svg">
<path d="M6.15461 1.75C3.90739 1.75405 2.73062 1.80922 1.97857 2.56126C1.16699 3.37284 1.16699 4.67906 1.16699 7.29149C1.16699 9.90395 1.16699 11.2101 1.97857 12.0217C2.79016 12.8333 4.09638 12.8333 6.70883 12.8333C9.32123 12.8333 10.6275 12.8333 11.4391 12.0217C12.1911 11.2697 12.2463 10.0929 12.2503 7.84572" stroke="#81818C" stroke-linecap="round" stroke-linejoin="round"/>
<path d="M6.44948 7.58333C6.02749 2.25537 9.80172 0.744066 12.8223 1.26256C12.9443 3.02829 12.0803 3.68948 10.435 3.99481C10.7527 4.32679 11.3141 4.74457 11.2536 5.2668C11.2105 5.63842 10.9581 5.82075 10.4534 6.18543C9.34719 6.9846 8.06578 7.48854 6.44948 7.58333Z" stroke="#81818C" stroke-linecap="round" stroke-linejoin="round"/>
<path d="M5.25 9.91667C6.41667 6.70833 7.56023 5.62121 8.75 4.66667" stroke="#81818C" stroke-linecap="round" stroke-linejoin="round"/>
</svg>
