<svg width="14" height="14" viewBox="0 0 14 14" fill="none" xmlns="http://www.w3.org/2000/svg">
<path d="M12.5413 7C12.5413 10.0606 10.0602 12.5417 6.99967 12.5417C3.93912 12.5417 1.45801 10.0606 1.45801 7C1.45801 3.93942 3.93912 1.45834 6.99967 1.45834C9.27211 1.45834 11.2251 2.82612 12.0802 4.78334M12.5413 3.20834L12.2643 5.06042L10.4997 4.66667" stroke="#81818C" stroke-linecap="round" stroke-linejoin="round"/>
<path d="M5.83301 6.41667V5.54167C5.83301 4.89733 6.35532 4.375 6.99967 4.375C7.64402 4.375 8.16634 4.89733 8.16634 5.54167V6.41667M6.56217 9.625H7.43717C8.12131 9.625 8.46337 9.625 8.69898 9.44417C8.75965 9.39762 8.81396 9.34331 8.86051 9.28264C9.04134 9.04703 9.04134 8.70497 9.04134 8.02083C9.04134 7.3367 9.04134 6.99463 8.86051 6.75902C8.81396 6.69836 8.75965 6.64405 8.69898 6.5975C8.46337 6.41667 8.12131 6.41667 7.43717 6.41667H6.56217C5.87804 6.41667 5.53599 6.41667 5.30034 6.5975C5.23968 6.64405 5.18537 6.69836 5.13882 6.75902C4.95801 6.99463 4.95801 7.3367 4.95801 8.02083C4.95801 8.70497 4.95801 9.04703 5.13882 9.28264C5.18537 9.34331 5.23968 9.39762 5.30034 9.44417C5.53599 9.625 5.87804 9.625 6.56217 9.625Z" stroke="#81818C" stroke-linejoin="round"/>
</svg>
