<svg width="14" height="14" viewBox="0 0 14 14" fill="none" xmlns="http://www.w3.org/2000/svg">
<path d="M1.16699 7C1.16699 4.80011 1.16699 3.70017 1.85041 3.01675C2.53383 2.33334 3.63377 2.33334 5.83366 2.33334H8.16699C10.3669 2.33334 11.4669 2.33334 12.1502 3.01675C12.8337 3.70017 12.8337 4.80011 12.8337 7C12.8337 9.19987 12.8337 10.2999 12.1502 10.9832C11.4669 11.6667 10.3669 11.6667 8.16699 11.6667H5.83366C3.63377 11.6667 2.53383 11.6667 1.85041 10.9832C1.16699 10.2999 1.16699 9.19987 1.16699 7Z" stroke="#81818C" stroke-linecap="round" stroke-linejoin="round"/>
<path d="M6.41634 5.83333C6.41634 5.189 5.89402 4.66666 5.24967 4.66666C4.60534 4.66666 4.08301 5.189 4.08301 5.83333C4.08301 6.47768 4.60534 7 5.24967 7C5.89402 7 6.41634 6.47768 6.41634 5.83333Z" stroke="#81818C" stroke-linecap="round" stroke-linejoin="round"/>
<path d="M7.58366 9.33333C7.58366 8.04469 6.53897 7 5.25033 7C3.96166 7 2.91699 8.04469 2.91699 9.33333" stroke="#81818C" stroke-linecap="round" stroke-linejoin="round"/>
<path d="M8.75 5.25H11.0833" stroke="#81818C" stroke-linecap="round" stroke-linejoin="round"/>
<path d="M8.75 7H11.0833" stroke="#81818C" stroke-linecap="round" stroke-linejoin="round"/>
</svg>
